<svg width="24" height="24" viewBox="0 0 24 24" fill="none" xmlns="http://www.w3.org/2000/svg">
<path d="M15 11C15 11.2652 15.1054 11.5196 15.2929 11.7071C15.4804 11.8946 15.7348 12 16 12H18.939C19.1655 11.9558 19.4002 11.9913 19.6035 12.1004C19.8068 12.2096 19.9661 12.3857 20.0544 12.5989C20.1427 12.8121 20.1545 13.0492 20.0879 13.2701C20.0213 13.491 19.8804 13.6821 19.689 13.811L12.854 20.647C12.7419 20.7591 12.6089 20.848 12.4624 20.9087C12.316 20.9693 12.159 21.0005 12.0005 21.0005C11.842 21.0005 11.685 20.9693 11.5386 20.9087C11.3921 20.848 11.2591 20.7591 11.147 20.647L4.31 13.81C4.1186 13.6811 3.97765 13.49 3.91105 13.2691C3.84445 13.0482 3.8563 12.8111 3.94459 12.5979C4.03287 12.3847 4.19216 12.2086 4.39546 12.0994C4.59875 11.9903 4.83353 11.9548 5.06 11.999H8C8.26522 11.999 8.51957 11.8936 8.70711 11.7061C8.89464 11.5186 9 11.2642 9 10.999V9C9 8.73478 9.10536 8.48043 9.29289 8.29289C9.48043 8.10536 9.73478 8 10 8H14C14.2652 8 14.5196 8.10536 14.7071 8.29289C14.8946 8.48043 15 8.73478 15 9V11Z" stroke="white" stroke-width="2" stroke-linecap="round" stroke-linejoin="round"/>
<path d="M9 4H15" stroke="white" stroke-width="2" stroke-linecap="round" stroke-linejoin="round"/>
</svg>
