<svg width="24" height="24" viewBox="0 0 24 24" fill="none" xmlns="http://www.w3.org/2000/svg">
<path d="M1.25 11.3C1.25 5.4365 6.1 0.75 12 0.75C17.9 0.75 22.75 5.4365 22.75 11.3V15.544C22.75 15.6357 22.7455 15.7262 22.7365 15.8155C22.7455 15.8755 22.75 15.937 22.75 16C22.75 16.985 22.6285 18.0585 22.51 18.8785C22.324 20.162 21.5645 21.435 20.174 21.9855C18.6775 22.5785 16.079 23.25 12 23.25C11.6685 23.25 11.3505 23.1183 11.1161 22.8839C10.8817 22.6495 10.75 22.3315 10.75 22C10.75 21.6685 10.8817 21.3505 11.1161 21.1161C11.3505 20.8817 11.6685 20.75 12 20.75C15.8015 20.75 18.0825 20.125 19.2535 19.6615C19.6345 19.5105 19.9485 19.123 20.0355 18.5205C20.0465 18.4442 20.0573 18.3665 20.068 18.2875C19.365 18.444 18.553 18.595 17.7455 18.6795C16.6845 18.791 15.65 18.1515 15.4565 16.9995C15.3435 16.3295 15.25 15.363 15.25 13.9995C15.25 12.637 15.3435 11.671 15.4565 11.0005C15.65 9.8485 16.6845 9.209 17.7455 9.3205C18.1715 9.365 18.599 9.428 19.0105 9.5005C18.1965 6.4985 15.3915 4.25 12 4.25C8.6085 4.25 5.804 6.4985 4.9895 9.5005C5.40897 9.42595 5.83089 9.36592 6.2545 9.3205C7.3155 9.209 8.35 9.8485 8.544 11.0005C8.6565 11.6705 8.75 12.637 8.75 14C8.75 15.363 8.6565 16.329 8.544 16.9995C8.35 18.1515 7.3155 18.791 6.2545 18.6795C5.1555 18.5645 4.0495 18.327 3.2195 18.1195C2.0195 17.819 1.25 16.731 1.25 15.5445V11.3Z" fill="white"/>
</svg>
