<svg width="20" height="20" viewBox="0 0 20 20" fill="none" xmlns="http://www.w3.org/2000/svg">
<mask id="mask0_924_153" style="mask-type:luminance" maskUnits="userSpaceOnUse" x="0" y="0" width="20" height="20">
<path d="M9.75001 18.5C10.8993 18.5014 12.0375 18.2757 13.0993 17.8359C14.1611 17.3961 15.1255 16.7508 15.9371 15.9371C16.7508 15.1255 17.3961 14.1611 17.8359 13.0993C18.2757 12.0375 18.5014 10.8993 18.5 9.75001C18.5014 8.60073 18.2757 7.46251 17.8359 6.40072C17.3961 5.33894 16.7508 4.37452 15.9371 3.56288C15.1255 2.7492 14.1611 2.10391 13.0993 1.66409C12.0375 1.22427 10.8993 0.998589 9.75001 1.00001C8.60073 0.998589 7.46251 1.22427 6.40072 1.66409C5.33894 2.10391 4.37452 2.7492 3.56288 3.56288C2.7492 4.37452 2.10391 5.33894 1.66409 6.40072C1.22427 7.46251 0.998589 8.60073 1.00001 9.75001C0.998589 10.8993 1.22427 12.0375 1.66409 13.0993C2.10391 14.1611 2.7492 15.1255 3.56288 15.9371C4.37452 16.7508 5.33894 17.3961 6.40072 17.8359C7.46251 18.2757 8.60073 18.5014 9.75001 18.5Z" fill="white" stroke="white" stroke-width="2" stroke-linejoin="round"/>
<path d="M6.25 9.75L8.875 12.375L14.125 7.125" stroke="black" stroke-width="2" stroke-linecap="round" stroke-linejoin="round"/>
</mask>
<g mask="url(#mask0_924_153)">
<path d="M-0.75 -0.75H20.25V20.25H-0.75V-0.75Z" fill="#266EF8"/>
</g>
</svg>
