<svg width="21" height="21" viewBox="0 0 21 21" fill="none" xmlns="http://www.w3.org/2000/svg">
<mask id="mask0_924_117" style="mask-type:luminance" maskUnits="userSpaceOnUse" x="0" y="0" width="21" height="21">
<path d="M10.5 19.25C11.6493 19.2514 12.7875 19.0257 13.8493 18.5859C14.9111 18.1461 15.8755 17.5008 16.6871 16.6871C17.5008 15.8755 18.1461 14.9111 18.5859 13.8493C19.0257 12.7875 19.2514 11.6493 19.25 10.5C19.2514 9.35073 19.0257 8.21251 18.5859 7.15072C18.1461 6.08894 17.5008 5.12452 16.6871 4.31288C15.8755 3.4992 14.9111 2.85391 13.8493 2.41409C12.7875 1.97427 11.6493 1.74859 10.5 1.75001C9.35073 1.74859 8.21251 1.97427 7.15072 2.41409C6.08894 2.85391 5.12452 3.4992 4.31288 4.31288C3.4992 5.12452 2.85391 6.08894 2.41409 7.15072C1.97427 8.21251 1.74859 9.35073 1.75001 10.5C1.74859 11.6493 1.97427 12.7875 2.41409 13.8493C2.85391 14.9111 3.4992 15.8755 4.31288 16.6871C5.12452 17.5008 6.08894 18.1461 7.15072 18.5859C8.21251 19.0257 9.35073 19.2514 10.5 19.25Z" fill="white" stroke="white" stroke-width="2" stroke-linejoin="round"/>
<path d="M7 10.5L9.625 13.125L14.875 7.875" stroke="black" stroke-width="2" stroke-linecap="round" stroke-linejoin="round"/>
</mask>
<g mask="url(#mask0_924_117)">
<path d="M0 0H21V21H0V0Z" fill="white"/>
</g>
</svg>
